General
Unique ID                                : 190785541753835392194832445302411727232 (0x8F87F572BC76CC30B49C99871AF99180)
Complete name                            : Rumi-chan starring Shiori Tomita - 17 Sai no Uta [WEB-DL 1080p AAC x264-SEKAI].mkv
Format                                   : Matroska
Format version                           : Version 4
File size                                : 208 MiB
Duration                                 : 3 min 4 s
Overall bit rate                         : 9 436 kb/s
Frame rate                               : 29.970 FPS
Title                                    : Rumi-chan starring Shiori Tomita - 17 Sai no Uta [WEB-DL 1080p AAC x264-SEKAI]
Encoded date                             : 2025-08-11 10:31:07 UTC
Writing application                      : mkvmerge 94.0 ('Initiate') 64-bit
Writing library                          : libebml v1.4.5 + libmatroska v1.7.1
Website                                  : https://sekai-archivist.blogspot.com/

Video
ID                                       : 1
Format                                   : AVC
Format/Info                              : Advanced Video Codec
Format profile                           : High@L4
Format settings                          : CABAC / 4 Ref Frames
Format settings, CABAC                   : Yes
Format settings, Reference frames        : 4 frames
Format settings, Slice count             : 8 slices per frame
Codec ID                                 : V_MPEG4/ISO/AVC
Duration                                 : 3 min 4 s
Bit rate                                 : 9 181 kb/s
Width                                    : 1 916 pixels
Height                                   : 1 080 pixels
Display aspect ratio                     : 16:9
Frame rate mode                          : Constant
Frame rate                               : 29.970 FPS
Color space                              : YUV
Chroma subsampling                       : 4:2:0 (Type 2)
Bit depth                                : 8 bits
Scan type                                : Progressive
Bits/(Pixel*Frame)                       : 0.148
Stream size                              : 202 MiB (97%)
Language                                 : Japanese
Default                                  : Yes
Forced                                   : No
Color range                              : Limited
Color primaries                          : BT.709
Transfer characteristics                 : BT.709
Matrix coefficients                      : BT.709

Audio
ID                                       : 2
Format                                   : AAC LC
Format/Info                              : Advanced Audio Codec Low Complexity
Codec ID                                 : A_AAC-2
Duration                                 : 3 min 4 s
Bit rate                                 : 254 kb/s
Channel(s)                               : 2 channels
Channel layout                           : L R
Sampling rate                            : 48.0 kHz
Frame rate                               : 46.875 FPS (1024 SPF)
Compression mode                         : Lossy
Stream size                              : 5.59 MiB (3%)
Language                                 : Japanese
Default                                  : Yes
Forced                                   : No


